<svg width="113" height="28" viewBox="0 0 113 28" fill="none" xmlns="http://www.w3.org/2000/svg">
<path d="M0.969177 4.62695H0V19.8658H0.969177V4.62695Z" fill="#31302F"/>
<path d="M15.9954 4.62565V19.8635H15.4772C15.397 19.8666 15.3174 19.8503 15.245 19.8158C15.1737 19.7744 15.113 19.717 15.0677 19.6481L5.15829 6.42491C5.17962 6.62886 5.19069 6.83375 5.19146 7.03881V19.8635H4.22021V4.62565H4.77581C4.85495 4.62188 4.93402 4.63457 5.00799 4.66292C5.07917 4.70407 5.13983 4.76112 5.18524 4.82959L15.0688 18.0197C15.047 17.8033 15.0356 17.5994 15.0356 17.4058V4.62565H15.9954Z" fill="#31302F"/>
<path d="M29.8545 17.3009C29.8886 17.3003 29.9225 17.3067 29.954 17.3197C29.9856 17.3327 30.0141 17.352 30.0379 17.3765L30.4691 17.8392C30.1554 18.1741 29.8108 18.4788 29.4398 18.7492C29.0602 19.0232 28.6514 19.2544 28.2209 19.4387C27.7542 19.6368 27.2677 19.7846 26.7697 19.8797C26.1957 19.9882 25.6125 20.0406 25.0283 20.036C24.0333 20.0475 23.0463 19.8588 22.1259 19.4811C21.2652 19.1255 20.491 18.5892 19.8559 17.9086C19.2034 17.1964 18.7026 16.3592 18.384 15.4478C18.0255 14.4163 17.8501 13.3303 17.8657 12.2385C17.8523 11.1594 18.0349 10.0868 18.4047 9.07274C18.7379 8.15958 19.2511 7.32245 19.9139 6.61092C20.5686 5.92107 21.3625 5.378 22.2431 5.01768C23.1912 4.63547 24.2059 4.4451 25.2283 4.45761C26.2711 4.45761 27.195 4.61911 28.0001 4.94211C28.8071 5.26719 29.5514 5.72994 30.1996 6.30967L29.8607 6.78899C29.8312 6.83243 29.7907 6.86736 29.7434 6.89026C29.6961 6.91316 29.6436 6.92322 29.5912 6.91943C29.5051 6.91943 29.3652 6.83971 29.1714 6.68236C28.9173 6.48543 28.6468 6.31053 28.3629 6.15956C27.9519 5.94211 27.5198 5.76695 27.0734 5.63676C26.4719 5.46778 25.8488 5.38824 25.2242 5.40072C24.3581 5.39026 23.4986 5.55106 22.695 5.87383C21.9479 6.17855 21.276 6.64162 20.7255 7.23104C20.1548 7.85447 19.7165 8.58699 19.4371 9.38435C18.8162 11.2482 18.818 13.2631 19.4423 15.1258C19.7237 15.9207 20.1618 16.6511 20.7307 17.274C21.2719 17.8562 21.9323 18.3152 22.667 18.6198C23.4304 18.9372 24.2501 19.0971 25.077 19.0898C25.5658 19.0954 26.0543 19.0607 26.5375 18.9863C26.9415 18.9207 27.3373 18.8121 27.7181 18.6622C28.0705 18.5229 28.4069 18.3462 28.7215 18.1353C29.0456 17.9152 29.352 17.6702 29.6378 17.4023C29.67 17.3759 29.7047 17.3526 29.7415 17.333C29.7734 17.316 29.8089 17.3068 29.8451 17.3061" fill="#31302F"/>
<path d="M65.8821 17.0757C66.3178 17.0828 66.7506 17.0029 67.1549 16.8407C67.5183 16.6911 67.8425 16.4602 68.1023 16.1657C68.3718 15.8528 68.5737 15.4877 68.6953 15.0932C68.8388 14.6279 68.9087 14.1431 68.9026 13.6563V4.62891H72.4424V13.6563C72.4525 14.5346 72.2982 15.4071 71.9873 16.2289C71.6988 16.9854 71.2546 17.6732 70.6834 18.2476C70.0958 18.8263 69.393 19.2753 68.6206 19.5655C66.8487 20.1936 64.9144 20.1936 63.1424 19.5655C62.3698 19.2758 61.6669 18.8268 61.0797 18.2476C60.5084 17.674 60.0653 16.986 59.7799 16.2289C59.4731 15.4062 59.3209 14.5341 59.331 13.6563V4.62891H62.8698V13.6449C62.8638 14.1324 62.9337 14.6179 63.0771 15.0839C63.197 15.4779 63.3963 15.8432 63.6628 16.1574C63.9211 16.4544 64.2451 16.6873 64.6092 16.8376C65.0135 16.9998 65.4463 17.0797 65.8821 17.0726" fill="#505AA0"/>
<path d="M78.7652 7.3485V10.9046H83.5624V13.5196H78.7652V17.1492H85.0281V19.8688H75.2036V4.62891H85.0281V7.3485H78.7652Z" fill="#505AA0"/>
<path d="M99.6888 19.8688H96.4838C95.8895 19.8688 95.4638 19.6455 95.2068 19.199L92.6755 14.7754C92.5792 14.5919 92.4295 14.4417 92.2462 14.3447C92.0628 14.2477 91.8544 14.2084 91.6483 14.2319H90.7486V19.8688H87.2046V4.62891H92.1697C93.2753 4.62891 94.2158 4.74244 94.9912 4.9695C95.7665 5.19656 96.4019 5.51197 96.8974 5.91572C97.371 6.29487 97.7405 6.78785 97.9713 7.3485C98.1992 7.92075 98.3133 8.53191 98.3071 9.14776C98.3095 9.6222 98.2425 10.0944 98.1081 10.5495C97.977 10.9838 97.7787 11.3949 97.5204 11.768C97.2546 12.1483 96.9315 12.4853 96.5626 12.767C96.1624 13.0715 95.7195 13.3157 95.2482 13.4917C95.4824 13.6124 95.7006 13.7616 95.8982 13.9358C96.1068 14.122 96.2898 14.335 96.4423 14.5694L99.6888 19.8688ZM92.1697 11.7939C92.5869 11.8037 93.0027 11.742 93.399 11.6117C93.7096 11.5053 93.9928 11.3318 94.2283 11.1033C94.4421 10.8906 94.6036 10.6312 94.6999 10.3455C94.7994 10.0433 94.8487 9.72681 94.846 9.40864C94.846 8.73849 94.628 8.21569 94.192 7.84024C93.7559 7.46479 93.0805 7.27638 92.1655 7.275H90.7413V11.7939H92.1697Z" fill="#505AA0"/>
<path d="M107.47 14.0737V19.8711H103.93V14.0737L98.4004 4.62912H101.521C101.781 4.61518 102.037 4.69046 102.247 4.84238C102.431 4.99381 102.582 5.18079 102.692 5.3921L104.849 9.8271C105.031 10.1763 105.195 10.5021 105.341 10.8044C105.487 11.1087 105.617 11.4059 105.729 11.6988C105.833 11.4 105.954 11.0984 106.091 10.794C106.227 10.4897 106.386 10.1673 106.566 9.8271L108.706 5.39003C108.758 5.29452 108.817 5.20346 108.884 5.11776C108.955 5.02546 109.037 4.94295 109.13 4.8724C109.229 4.79676 109.338 4.73639 109.455 4.6933C109.585 4.64771 109.721 4.62528 109.858 4.62705H113L107.47 14.0737Z" fill="#505AA0"/>
<path d="M45.6411 0.0362723C43.5299 -0.124026 41.4122 0.248709 39.4831 1.12016C37.554 1.99161 35.8754 3.33376 34.6018 5.02306C34.5842 5.04584 34.5666 5.07586 34.5427 5.10381C33.2989 6.87616 32.4831 8.81103 32.1783 10.8505C32.1379 11.1372 32.1079 11.4292 32.085 11.7159C32.0788 11.8195 32.0736 11.9147 32.0674 12.0141C32.055 12.2211 32.0498 12.423 32.0498 12.628C32.0498 12.833 32.055 13.0369 32.0674 13.2419C32.0736 13.3454 32.0788 13.4396 32.085 13.54C32.1079 13.8258 32.1379 14.1188 32.1783 14.4045C32.4831 16.4398 33.2957 18.3747 34.5313 20.1387C34.5438 20.1503 34.5537 20.1644 34.5603 20.1801C36.9185 23.5167 40.791 26.2643 45.5633 27.9931C45.589 28.0023 45.617 28.0023 45.6426 27.9931C45.6682 27.9838 45.6898 27.966 45.7036 27.9426C45.7175 27.9192 45.7228 27.8917 45.7185 27.8648C45.7143 27.838 45.7009 27.8134 45.6805 27.7954C44.6014 26.7715 44.6885 25.2704 44.6885 25.2704C47.2871 25.2363 49.8837 24.3946 51.8739 23.0157C53.7494 21.7225 55.2398 19.9468 56.1872 17.8766C57.1346 15.8065 57.5038 13.5189 57.2556 11.2563C56.6233 5.25185 51.6655 0.476253 45.6463 0.0362723M44.6968 20.5197C43.134 20.5197 41.6063 20.0568 40.3069 19.1897C39.0074 18.3225 37.9947 17.09 37.3966 15.648C36.7986 14.206 36.6421 12.6192 36.947 11.0884C37.2519 9.55756 38.0044 8.1514 39.1095 7.04772C40.2145 5.94405 41.6225 5.19244 43.1552 4.88794C44.688 4.58343 46.2768 4.73971 47.7206 5.33702C49.1644 5.93432 50.3985 6.94582 51.2667 8.2436C52.135 9.54138 52.5984 11.0672 52.5984 12.628C52.5979 14.7208 51.7652 16.7278 50.2835 18.2077C48.8017 19.6875 46.7923 20.5191 44.6968 20.5197Z" fill="#505AA0"/>
</svg>
