<svg id="Layer_1" data-name="Layer 1" xmlns="http://www.w3.org/2000/svg" viewBox="0 0 1366 768"><defs><style>.cls-1{fill:#31302f;}.cls-2{fill:#505aa0;}</style></defs><rect class="cls-1" x="137.92" y="313.62" width="9.35" height="147.2"/><path class="cls-1" d="M292.24,313.62V460.81h-5a4.77,4.77,0,0,1-2.24-.46,5.14,5.14,0,0,1-1.71-1.62L187.69,331a59.25,59.25,0,0,1,.32,5.93V460.81h-9.37V313.62H184a5.52,5.52,0,0,1,2.24.36,5.14,5.14,0,0,1,1.71,1.61L283.3,443c-.21-2.09-.32-4.06-.32-5.93V313.62Z"/><path class="cls-1" d="M425.94,436.06a2.41,2.41,0,0,1,1.77.73l4.16,4.47a70.6,70.6,0,0,1-9.93,8.79,61.28,61.28,0,0,1-11.76,6.66,68.82,68.82,0,0,1-14,4.26,86.64,86.64,0,0,1-16.8,1.51,71.5,71.5,0,0,1-28-5.36,62.71,62.71,0,0,1-21.9-15.19,68.83,68.83,0,0,1-14.2-23.77,90.6,90.6,0,0,1-5-31,86.23,86.23,0,0,1,5.2-30.58,70.18,70.18,0,0,1,14.56-23.78,64.81,64.81,0,0,1,22.47-15.39A74.51,74.51,0,0,1,381.31,312q15.09,0,26.74,4.68a72.42,72.42,0,0,1,21.22,13.21L426,334.52a2.89,2.89,0,0,1-2.6,1.26c-.83,0-2.18-.77-4.05-2.29a54.52,54.52,0,0,0-7.8-5.05,66.22,66.22,0,0,0-12.44-5.05,61.35,61.35,0,0,0-17.84-2.28,63.34,63.34,0,0,0-24.4,4.57,53.79,53.79,0,0,0-19,13.11,60.37,60.37,0,0,0-12.43,20.8,87.6,87.6,0,0,0,.05,55.46,60.92,60.92,0,0,0,12.43,20.75,53.45,53.45,0,0,0,18.68,13,59.14,59.14,0,0,0,23.25,4.54,86,86,0,0,0,14.09-1,55.29,55.29,0,0,0,11.39-3.13,51.19,51.19,0,0,0,9.68-5.09,72.52,72.52,0,0,0,8.84-7.08,6.08,6.08,0,0,1,1-.67,2.22,2.22,0,0,1,1-.26"/><path class="cls-2" d="M773.51,433.87a31.55,31.55,0,0,0,12.28-2.27,24.76,24.76,0,0,0,9.14-6.52,28.94,28.94,0,0,0,5.72-10.36,45.22,45.22,0,0,0,2-13.88v-87.2h34.15v87.2a68.08,68.08,0,0,1-4.39,24.85,55.91,55.91,0,0,1-12.58,19.5,56.83,56.83,0,0,1-19.9,12.73,79,79,0,0,1-52.85,0,56.65,56.65,0,0,1-19.9-12.73,55.26,55.26,0,0,1-12.54-19.5,68.92,68.92,0,0,1-4.33-24.85v-87.2h34.14v87.09a45.39,45.39,0,0,0,2,13.9A29.16,29.16,0,0,0,752.1,425a24.48,24.48,0,0,0,9.13,6.57,31.55,31.55,0,0,0,12.28,2.27"/><polygon class="cls-2" points="897.79 339.91 897.79 374.26 944.07 374.26 944.07 399.52 897.79 399.52 897.79 434.58 958.21 434.58 958.21 460.85 863.43 460.85 863.43 313.64 958.21 313.64 958.21 339.91 897.79 339.91"/><path class="cls-2" d="M1099.66,460.85h-30.92q-8.6,0-12.32-6.47L1032,411.65a9.92,9.92,0,0,0-9.91-5.25h-8.68v54.45H979.22V313.64h47.9q16,0,27.22,3.29t18.39,9.14a34.6,34.6,0,0,1,10.36,13.84,45.76,45.76,0,0,1,3.24,17.38,47,47,0,0,1-1.92,13.54,42,42,0,0,1-5.67,11.77,43.44,43.44,0,0,1-9.24,9.65,49.56,49.56,0,0,1-12.68,7,30.87,30.87,0,0,1,6.27,4.29,30.48,30.48,0,0,1,5.25,6.12Zm-72.54-78a35.26,35.26,0,0,0,11.86-1.76,21.48,21.48,0,0,0,8-4.91,18.8,18.8,0,0,0,4.55-7.32,28.23,28.23,0,0,0,1.41-9.05q0-9.71-6.31-15.15t-19.55-5.46h-13.74v43.65Z"/><path class="cls-2" d="M1174.73,404.88v56h-34.15v-56l-53.35-91.23h30.11a10.94,10.94,0,0,1,7,2.06,17.05,17.05,0,0,1,4.29,5.31l20.81,42.84q2.63,5.06,4.75,9.44c1.41,2.94,2.66,5.81,3.74,8.64q1.51-4.33,3.49-8.74t4.59-9.34L1186.65,321a19.06,19.06,0,0,1,1.72-2.63,12.66,12.66,0,0,1,2.37-2.37,12,12,0,0,1,3.14-1.73,11.26,11.26,0,0,1,3.89-.64h30.31Z"/><path class="cls-2" d="M578.24,269.28a121.76,121.76,0,0,0-106.5,48.17c-.17.22-.34.51-.57.78-12,17.12-19.87,35.81-22.81,55.51-.39,2.77-.68,5.59-.9,8.36-.06,1-.11,1.92-.17,2.88-.12,2-.17,3.95-.17,5.93s.05,3.95.17,5.93c.06,1,.11,1.91.17,2.88.22,2.76.51,5.59.9,8.35,2.94,19.66,10.78,38.35,22.7,55.39a1.15,1.15,0,0,1,.28.4c22.75,32.23,60.11,58.77,106.15,75.47a1.13,1.13,0,0,0,1.13-1.91c-10.41-9.89-9.57-24.39-9.57-24.39,25.07-.33,50.12-8.46,69.32-21.78a121.9,121.9,0,0,0,51.92-113.59c-6.1-58-53.93-104.13-112-108.38m-9.16,197.86a76.23,76.23,0,1,1,76.23-76.23,76.25,76.25,0,0,1-76.23,76.23"/></svg>